<?xml version="1.0" standalone="no"?>
<!DOCTYPE svg PUBLIC "-//W3C//DTD SVG 20010904//EN"
 "http://www.w3.org/TR/2001/REC-SVG-20010904/DTD/svg10.dtd">
<svg version="1.0" xmlns="http://www.w3.org/2000/svg"
 width="150.000000pt" height="150.000000pt" viewBox="0 0 150.000000 150.000000"
 preserveAspectRatio="xMidYMid meet">
<metadata>
Created by potrace 1.14, written by Peter Selinger 2001-2017
</metadata>
<g transform="translate(0.000000,150.000000) scale(0.100000,-0.100000)"
fill="#000000" stroke="none">
<path d="M258 1422 c-65 -23 -133 -83 -166 -145 l-27 -52 0 -475 0 -475 27
-50 c32 -60 77 -105 138 -137 l45 -23 475 0 475 0 50 27 c60 31 104 77 136
138 l24 45 0 475 0 475 -27 50 c-31 60 -77 104 -138 136 l-45 24 -460 2 c-415
2 -465 1 -507 -15z"/>
</g>
</svg>
