<?xml version="1.0" encoding="utf-8"?>
<!-- Generator: Adobe Illustrator 23.0.1, SVG Export Plug-In . SVG Version: 6.00 Build 0)  -->
<svg version="1.1" id="Layer_1" xmlns="http://www.w3.org/2000/svg" xmlns:xlink="http://www.w3.org/1999/xlink" x="0px" y="0px"
	 viewBox="0 0 2500 2070" style="enable-background:new 0 0 2500 2070;" xml:space="preserve">
<style type="text/css">
	.st0{fill:#AFAFAF;}
</style>
<path class="st0" d="M0,319.2h584.4v171.9H0V319.2z M0,0h584.4v171.9H0V0z M1048.5,636H0v171.9h1009.2
	c110.5,0,368.3,2.5,464.1,157.1v-95.8C1426.6,717,1289.1,636,1048.5,636L1048.5,636z M1050.9,955.2H0V1127h1009.2
	c245.5,0,400.2,9.8,464.1,44.2v-76.1C1424.1,974.8,1217.9,955.2,1050.9,955.2L1050.9,955.2z M1048.5,1765.4H0v-171.9h1009.2
	c110.5,0,368.3-2.5,464.1-157.1v95.8C1426.6,1684.4,1289.1,1765.4,1048.5,1765.4L1048.5,1765.4z M1050.9,1446.2H0v-171.9h1009.2
	c245.5,0,400.2-9.8,464.1-44.2v76.1C1424.1,1426.6,1217.9,1446.2,1050.9,1446.2L1050.9,1446.2z M1728.6,2062.6h771V1957h-748.9
	c-66.3,0-223.4-2.5-279.9-93.3v58.9C1497.8,2013.4,1581.3,2062.6,1728.6,2062.6z M1726.2,1868.6h771V1763h-746.5
	c-149.8,0-243.1-4.9-279.9-27v46.7C1500.3,1856.3,1625.5,1868.6,1726.2,1868.6L1726.2,1868.6z"/>
</svg>
