<?xml version="1.0" encoding="utf-8"?>
<!-- Generator: Adobe Illustrator 23.0.1, SVG Export Plug-In . SVG Version: 6.00 Build 0)  -->
<svg version="1.1" id="Layer_1" xmlns="http://www.w3.org/2000/svg" xmlns:xlink="http://www.w3.org/1999/xlink" x="0px" y="0px"
	 viewBox="0 0 533.3 533.3" style="enable-background:new 0 0 533.3 533.3;" xml:space="preserve">
<style type="text/css">
	.st0{fill:#AFAFAF;}
	.st1{fill:#FFFFFF;}
</style>
<path class="st0" d="M533.3,444.4c0,48.9-40,88.9-88.9,88.9H88.9C40,533.3,0,493.3,0,444.4V88.9C0,40,40,0,88.9,0h355.6
	c48.9,0,88.9,40,88.9,88.9V444.4z"/>
<path class="st1" d="M144.9,115.9h151.2c27.9,0,50.3,6.4,67.1,19.2s25.3,32.1,25.3,58c0,15.7-3.8,29.1-11.5,40.3
	c-7.7,11.2-18.6,19.9-32.9,26v0.9c19.2,4.1,33.7,13.2,43.6,27.2c9.8,14.1,14.8,31.7,14.8,53c0,12.2-2.2,23.6-6.5,34.2
	c-4.4,10.6-11.2,19.8-20.5,27.5c-9.3,7.7-21.2,13.8-35.7,18.3c-14.6,4.5-31.8,6.8-51.9,6.8H144.9L144.9,115.9z M199.4,246.2h88.9
	c13.1,0,24-3.7,32.7-11.2c8.7-7.5,13.1-18.1,13.1-32.1c0-15.7-3.9-26.8-11.8-33.1c-7.8-6.4-19.2-9.6-34-9.6h-88.9L199.4,246.2z
	 M199.4,382.6h96.3c16.6,0,29.5-4.3,38.5-12.9c9.2-8.5,13.8-20.7,13.8-36.4c0-15.4-4.5-27.2-13.8-35.6c-9.2-8.4-22-12.4-38.5-12.4
	h-96.3V382.6z"/>
</svg>
