<?xml version="1.0" encoding="utf-8"?>
<!-- Generator: Adobe Illustrator 24.1.3, SVG Export Plug-In . SVG Version: 6.00 Build 0)  -->
<svg version="1.1" id="Layer_1" xmlns="http://www.w3.org/2000/svg" xmlns:xlink="http://www.w3.org/1999/xlink" x="0px" y="0px"
	 viewBox="0 0 718 629" style="enable-background:new 0 0 718 629;" xml:space="preserve">
<style type="text/css">
	.st0{fill:#AFAFAF;}
</style>
<g>
	<path class="st0" d="M707,314.3c0-46.9-58.7-91.3-148.7-118.8c20.8-91.7,11.5-164.7-29.1-188c-9.4-5.5-20.3-8.1-32.3-8.1v32.2
		c6.6,0,12,1.3,16.4,3.7c19.6,11.2,28.1,54.1,21.5,109.2c-1.6,13.6-4.2,27.8-7.4,42.4c-28.3-6.9-59.1-12.3-91.6-15.7
		c-19.5-26.7-39.7-50.9-60-72.1c47-43.7,91.1-67.6,121.1-67.6V-0.8l0,0c-39.7,0-91.6,28.3-144.1,77.3C300.5,27.8,248.6-0.2,209-0.2
		V32c29.8,0,74.1,23.8,121.1,67.2c-20.2,21.2-40.4,45.3-59.6,72c-32.6,3.5-63.4,8.8-91.7,15.9c-3.3-14.4-5.8-28.4-7.5-41.8
		c-6.8-55.1,1.6-97.9,21.1-109.3c4.3-2.6,9.9-3.7,16.6-3.7V0l0,0c-12.1,0-23.1,2.6-32.6,8.1c-40.5,23.4-49.6,96.2-28.7,187.6
		C58,223.3-0.4,267.6-0.4,314.3c0,46.9,58.7,91.3,148.7,118.8c-20.8,91.7-11.5,164.7,29.1,188c9.4,5.5,20.3,8.1,32.4,8.1
		c39.7,0,91.6-28.3,144.1-77.3c52.5,48.7,104.4,76.7,144.1,76.7c12.1,0,23.1-2.6,32.6-8.1c40.5-23.4,49.6-96.2,28.7-187.6
		C648.6,405.4,707,361,707,314.3z M519.3,218.1c-5.3,18.6-12,37.8-19.5,57c-5.9-11.5-12.1-23.1-18.9-34.6
		c-6.6-11.5-13.7-22.8-20.8-33.7C480.6,209.8,500.4,213.5,519.3,218.1z M453.2,371.7c-11.2,19.5-22.8,37.9-34.8,55.1
		c-21.5,1.9-43.3,2.9-65.2,2.9c-21.8,0-43.5-1-64.9-2.7c-12-17.2-23.6-35.5-34.9-54.8c-11-18.9-20.9-38.1-30-57.4
		c8.9-19.3,19-38.6,29.8-57.5c11.2-19.5,22.8-37.9,34.8-55.1c21.5-1.9,43.3-2.9,65.2-2.9c21.8,0,43.5,1,64.9,2.7
		c12,17.2,23.6,35.5,34.9,54.8c11,18.9,20.9,38.1,30,57.4C474,333.5,464,352.8,453.2,371.7z M499.8,353
		c7.8,19.3,14.4,38.6,19.9,57.4c-18.9,4.6-38.8,8.5-59.4,11.5c7.1-11.1,14.1-22.5,20.8-34.2C487.7,376.2,493.9,364.5,499.8,353z
		 M353.6,506.8c-13.4-13.8-26.8-29.3-40.1-46.1c13,0.6,26.2,1,39.7,1c13.6,0,27-0.3,40.1-1C380.3,477.5,366.8,493,353.6,506.8z
		 M246.3,421.9c-20.5-3-40.2-6.8-59.1-11.4c5.3-18.6,12-37.8,19.5-57c5.9,11.5,12.1,23.1,18.9,34.6S239.2,410.9,246.3,421.9z
		 M352.9,121.8c13.4,13.8,26.8,29.3,40.1,46.1c-13-0.6-26.2-1-39.7-1c-13.6,0-27,0.3-40.1,1C326.2,151.1,339.6,135.6,352.9,121.8z
		 M246.2,206.7c-7.1,11.1-14.1,22.5-20.8,34.2c-6.6,11.5-12.8,23.1-18.7,34.6c-7.8-19.3-14.4-38.6-19.9-57.4
		C205.6,213.7,225.5,209.8,246.2,206.7z M115.7,387.3c-51-21.8-84.1-50.3-84.1-73s33-51.3,84.1-73c12.4-5.3,26-10.1,39.9-14.6
		c8.2,28.3,19,57.7,32.4,87.8c-13.3,30-23.9,59.3-32,87.4C141.8,397.5,128.2,392.6,115.7,387.3z M193.2,593.3
		c-19.6-11.2-28.1-54.1-21.5-109.2c1.6-13.6,4.2-27.8,7.4-42.4c28.3,6.9,59.1,12.3,91.6,15.7c19.5,26.7,39.7,50.9,60,72.1
		c-47,43.7-91.1,67.6-121.1,67.6C203,597.1,197.6,595.8,193.2,593.3z M535.3,483.5c6.8,55.1-1.6,97.9-21.1,109.3
		c-4.3,2.6-9.9,3.7-16.6,3.7c-29.8,0-74.1-23.8-121.1-67.2c20.2-21.2,40.4-45.3,59.6-72c32.6-3.5,63.4-8.8,91.7-15.9
		C531.1,456.1,533.7,470,535.3,483.5z M590.8,387.3c-12.4,5.3-26,10.1-39.9,14.6c-8.2-28.3-19-57.7-32.4-87.8
		c13.3-30,23.9-59.3,32-87.4c14.3,4.5,27.8,9.4,40.5,14.7c51,21.8,84.1,50.3,84.1,73C674.9,336.9,641.8,365.6,590.8,387.3z"/>
	<path class="st0" d="M208.8-0.2L208.8-0.2L208.8-0.2z"/>
	<circle class="st0" cx="353.1" cy="314.3" r="65.9"/>
	<path class="st0" d="M496.8-0.6L496.8-0.6L496.8-0.6z"/>
</g>
</svg>
